# xmcd
#
# Track frame offsets:
#      150
#      13304
#      26068
#      37282
#      49738
#      65254
#      77898
#      90209
#      101554
#      119214
# 
# Disc length: 1903 seconds
#
# Revision: 4
# Processed by: cddbd v1.4PL0 Copyright (c) Steve Scherf et al.
#
# Submitted via: FreeRIP 1.21
#
DISCID=86076d0a
DTITLE=20 Minute Crash - 208 Ferrill (rough cut)
DYEAR=1900
DGENRE=
TTITLE0=Blue
TTITLE1=Why Can't I
TTITLE2=That Guy
TTITLE3=Sunshine
TTITLE4=Me and You
TTITLE5=The King of San Diego
TTITLE6=Get Wit' It
TTITLE7=Beneath Me
TTITLE8=Rearranged
TTITLE9=CFB
EXTD=
EXTT0=
EXTT1=
EXTT2=
EXTT3=
EXTT4=
EXTT5=
EXTT6=
EXTT7=
EXTT8=
EXTT9=
PLAYORDER=
